<svg xmlns="http://www.w3.org/2000/svg" width="384.186" height="549.388" viewBox="0 0 384.186 549.388"><defs><style>.a{opacity:0.1;}.b,.c{fill:#d6a34b;}.b{fill-rule:evenodd;}</style></defs><g class="a" transform="translate(-231.605 -159.284)"><g transform="translate(60.154 72)"><g transform="translate(466.08 352.371)"><path class="b" d="M550.968,361.8c-1.643-2.43-4.977-1.185-3.236,1.942,5.872,10.612,12.057,19.962,16.3,30.9,2.108,4.781,2.185,9.742,4.414,14.085,8.438,13.88,15.109,23.894,23.873,36.083,3.226,4.53-7.9,13.9-14.811,17-4.129,2.429-2.061,10.512-4.518,11.129-6.808.723-15.912,4.63-15.549,10.749.865,2.846,8.531,1.874,12.416,2.627,1.378,3.969-.264,7.7-4,8.182-2.515-.048-5.727-.8-7.544-2.24.707,4.332,3.385,6.109,5.6,7.421-7.608,17.233-3.493,30.828-7.119,32.364-14.575,7.37-29.142,7.027-44.932,3.073a2.721,2.721,0,1,0-1.026,5.341c13.937,3.82,35.932,3.379,48.547-4.206,3.208-1.826,3.973-4.125,3.881-9.709,0-6.617,1.409-19.222,6.182-26.145,7.873-5.4,5.786-10.493,4.5-17.224,3.269-1.871,4.73-3.377,4.84-6.267a22.982,22.982,0,0,1,1.7-11.11c9.485-4.052,13.9-8.589,16.957-14.591a9.476,9.476,0,0,0-.792-8.548A360.544,360.544,0,0,1,572,407.105c-2.086-4.288-2.071-8.764-3.882-13.268A234.711,234.711,0,0,0,550.968,361.8Z" transform="translate(-508.555 -360.517)"/></g><g transform="translate(383.834 543.905)"><path class="c" d="M541.527,610.11c-.55,0-1.111-.017-1.694-.053h-.005c-29.289-2.3-56.4-27.193-98.2-67.618l-.413-.4,29.753-24.7.331.323c19.3,18.707,37.054,34.748,58.877,41.578,3.074.382,5.219.573,6.189-.425.824-.848.972-2.661.476-5.885a4.3,4.3,0,0,1,2.017-3.839,4.078,4.078,0,0,1,4.338-.134l.154.13c2.239,2.879,19.1,38.844,10.958,54.226C551.914,607.829,547.623,610.11,541.527,610.11Zm-1.622-1.081c6.556.442,11.094-1.66,13.489-6.195,4.09-7.724,1.42-20.978-1.54-30.734-3.36-11.069-7.929-20.475-9.255-22.292a3.049,3.049,0,0,0-3.183.148,3.291,3.291,0,0,0-1.56,2.856c.554,3.587.327,5.607-.758,6.724-1.3,1.337-3.571,1.158-7.145.707-22-6.879-39.77-22.859-59.039-41.521L442.753,542.1c41.406,40.032,68.313,64.67,97.155,66.931Z" transform="translate(-441.213 -517.343)"/></g><g transform="translate(521.727 466.983)"><path class="b" d="M555.983,459.6c-.806.065-.993-.5-.412-.948a26.791,26.791,0,0,1,5.9-3.057c.829-.283,1.509-.142,1.777.607.261.883-.381,2.233-.789,2.98-.255.574-1.238.353-1.874.325A14.953,14.953,0,0,0,555.983,459.6Z" transform="translate(-553.871 -454.118)"/><path class="c" d="M556.1,461.205a1.9,1.9,0,0,1-1.869-1.155,1.941,1.941,0,0,1,.754-2.233,24.329,24.329,0,0,1,5.5-2.934l.69-.3c1.933-.66,3.18.228,3.6,1.4.329,1.11.032,2.424-.878,4.093-.559,1.255-2.088,1.119-2.807,1.055l-.316-.022a14.011,14.011,0,0,0-4.376.082l-.06.006C556.259,461.2,556.178,461.205,556.1,461.205Zm5.413-2.441a.927.927,0,0,0-.053.1C561.48,458.832,561.5,458.8,561.514,458.764Zm-1.982-.485c.388.023.839.06,1.418.111l.382.028c.1.008.228.021.345.029a5.439,5.439,0,0,0,.493-1.329l-.015.005-.6.263C560.847,457.689,560.174,457.976,559.532,458.279Z" transform="translate(-554.118 -454.361)"/></g><g transform="translate(392.919 554.414)"><path class="b" d="M546.09,603c-23.372,5.665-68.219-31.209-97.438-64.96q12.573-6.045,25.141-12.094c27.315,24.962,70.667,52.5,66.319,23.1-1.131-5.8,4.57-1.59,5.882,2.536,10.421,24.05,16.586,46.115.1,51.416Zm-74.335-72.163L454.9,539.131c26.365,29.625,61.834,59.523,85.345,59.657,16.034-1.044,11.414-20.7,3.941-38.73-8.9,13.391-26.684,6.884-72.435-29.219Zm65.491,38.535c-4.781,0-8.653,5.813-8.653,12.984s3.873,12.979,8.653,12.979,8.654-5.812,8.654-12.979-3.876-12.984-8.654-12.984Zm-27.37-8.436c-4.337,0-7.853,5.274-7.853,11.778s3.516,11.774,7.853,11.774,7.849-5.273,7.849-11.774-3.515-11.778-7.849-11.778Zm-29.34-18.682c-4.437,0-7.633,4.55-7.143,10.164s4.488,10.163,8.925,10.163,7.635-4.551,7.141-10.163S484.971,542.256,480.536,542.256Z" transform="translate(-448.652 -525.948)"/></g><g transform="translate(465.988 395.747)"><path class="b" d="M542.444,407.976c-11.321.374-23.39-1.12-33.964-11.2l33.219-.745Q542.072,402,542.444,407.976Z" transform="translate(-508.48 -396.033)"/></g><g transform="translate(457.776 371.918)"><path class="b" d="M501.756,395.5c14.858-15.93,26.022-16.678,41.8-12.317C528.259,369.433,509.13,378.665,501.756,395.5Z" transform="translate(-501.756 -376.523)"/></g><g transform="translate(171.451 87.284)"><path class="b" d="M274.475,618.415c-1.853-2.887-.765-6.274,1.889-6.487,57.465-7.334,80.2-55.179,61.9-124.6-9.368,2.494-15.822,4.6-28.11,3.511-8.878-1.022-11.756-.474-20.188-18.139-20.3-51.425-21.865-90.492,4.513-138.623-8.294-5.336-10.569-4.7-14.324-2.434l-3.787,2.976c-4.737,3.1-8.814.024-8.918-4.6-2.14-28.023,22.4-29.61,42.7-27.568q-3.376-8.922-6.756-17.841c-2.594-4.432-8.469-9.369-18.378-6.486-6.037,2.18-11.317.326-6.758-7.838,14.757-20.938,41.875-13.621,54.866-3.782,3.046-10.362-1.731-16.687-14.325-19.733-11.3-1.494-15.587-5.22-22.6-12.769-4.127-6.163-2.9-12.619,5.838-10.2,9.623,3.765,24.8,2.594,39.463,2.973,19.389.126,31.967,15.387,32.435,28.377.252,15.641,4.288,19.427,11.351,26.489,6.45-26.614,32.312-28.024,46.584-23.1,12.392,3.459,26.063-19.252,18.264-31.489-5.776-10.146-14.967-20.718-27.549-31.36-3.69-2.962-3.174-5.4-1.081-7.838,19.446-13.01,43.235-13.575,58.122-4.326,17.532-27.527,43.512-37.53,66.477-40,4.421-.475,4.255,1.859,4.323,5.407q.139,7.3.272,14.595a100.535,100.535,0,0,0,14.6,17.029c3.587,3.576-.478,6.827-4.326,8.108-14.364,5.283-20.969,14.725-17.839,28.65,2.692,9.966,12.167,17.907,20.984,19.237,6.97,1.1,9.656-1.341,15.981-3.515,5.206-1.183,6.936,1.5,7.632,5.089.95,5.445,4.648,9.3,9.191,11.893,9.7,5.459,20.883,12.931,27.839,18.919,9.674,8.9,2.457,25.329-7.3,26.759-1.594.3-3.152.161-3.514-1.623-.375-11.682-18.493-13.885-19.73-1.352-1.307,13.458-2.744,18.977-10.271,19.733q-6.621.271-13.243.54c-5.317.553-7.86,8.043-.071,12.484,10.585,7.093,41.483,10.36,41.55,21.723,0,2.521.144,6.784.144,9.308-.245,4.876-4.377,6.215-3.786,15.674,5.78,31.457-15.992,45.731-42.7,35.951-6.855-3.417-10.667-8.287-14.214-16.071-4.505,2.523-8.767,4.906-13.271,7.429a36.53,36.53,0,0,0,1.81,18.911c2.741,6.065.491,8-2.7,8.11l-12.974.269c-.092,1.533-.133,2.265-.225,3.8,22.475,12.523,32.8,27.163,27.836,44.644-5.885,15.2-21.064,10.324-33.02,7.237-.144,2.062-.885,5.252-.464,8.227,3.182,4.035,4.333,6.808,3.979,9.07,9.056,3.567,10.183,9.247,9.732,15.137,3.2,6.689,2.386,11.478-.541,15.944.193,9.736-2.361,14.612-7.028,18.11-1.555,11.8-9.844,17.456-21.4,16.581-3.2,2.593-7.884,3.5-11.577,3.421-2.718,8.2-10.877,9.571-19.732,9.46-2.685,5.949-11.612,5.663-17.864,4.685-1.849,4.035-5.38,5-9.7,4.774-20.966,72.872-125.97,96.856-170.007,30.543Zm5.456-.58c19.5,20.2,35.4,33.536,71.659,33.852,43.735-4.93,74.743-30.037,87.787-64.786-16.04,4.93-37.478-8.448-18.544-38.729q-7.98-7.277-15.963-14.553c-.849,54.727-29.727,116.523-94.591,99.758q.231-1.524.467-3.049c69.55,3.962,72.087-71.081,64.784-118.539-.984-6.295-5.008-9.14-13.61-11.736-2.694-.717-3.781-5.749-.255-6.7,2.975-.629,5.261-.883,8.234-1.511q-.119-4.692-.234-9.388c-2.253-1.627-4.069-1.173-6.1.7-5.4,4.885-12.98,2.329-20.391,2.9,21.352,79.141-10.32,121.587-63.175,130.195-.881.173-.723,1.1-.065,1.59Zm139.651-79.773a90.278,90.278,0,0,1,9.73-17.946,90.985,90.985,0,0,1-1.212-13.294c-.039-1.591-1.285-1.17-1.636-.536-3.388,5.909-7.037,11.893-10.423,17.806-9.9-8.547-19.221-16.8-31.92-24.95,17.671-6.714,33.314-13.229,46.273-22.269-19.738,6.723-38.666,12.554-58.2,17.532a2.211,2.211,0,0,0-1.051,3.873c16.626,13.134,31.992,26.037,46.272,39.569.55.645,1.613,1,2.163.216ZM432.3,523.276l-8.875,19.862,12.256-16.9-3.38-2.958Zm3.38,59.589c-4.365-17.678-4.138-32.375,2.748-53.039-9.446,14.024-19.24,26.114-19.388,39.565.38,13.069,11.785,13.838,16.64,13.475Zm6.478-46.63a59.641,59.641,0,0,0-3.057,41.334c1.833,5.713,4.532,5.991,8.055,5.165,5.523-1.23,5.415-5.414,3.507-9.364-4.7-10.744-5.323-20.627-2.85-35.789,1.339-4.289-3.1-6.9-5.655-1.346Zm11.621,3.059c-4.411,15.916-.983,28.271,2.228,35.5,4.708,8.907,16.747,2.28,10.645-6.161-6.508-9.754-7.9-17.6-7.069-29,.565-4.861-4.259-6.252-5.8-.337Zm15.093,13.645c-.078-6,0-10.793,1.7-17.277q-3.067-.163-6.136-.322c-.377,10.79.457,17.3,4.44,17.6Zm.971,9.04c2.2,16.98,15.441,12.013,15.9,5.331-5.7.564-10.442-.485-15.9-5.331Zm-10.352-71.006a14.94,14.94,0,1,0,9.632,26.357c1.61-1.589,1.3-3.665-.427-5.409q-2.878-2.62-5.763-5.234c-1.253-1.157-1.215-2.9.118-4.35l5.143-4.609c.845-1.019,1.423-2.787-.114-4.039a14.872,14.872,0,0,0-8.589-2.715ZM472.4,501.219a3.764,3.764,0,0,0,0,7.527c2.079,0,2.821-1.745,2.821-3.824s-.743-3.7-2.821-3.7Zm13.635,60.676c-.374-9.664-7.85-12.065-8.854-33.967-1.114,6.039-11.793,38.728,8.854,33.967Zm13.443-5c-5.174-11.721-9.74-23.994-14.73-35.8-.364-.86-1.551-.717-1.529.188a224.228,224.228,0,0,0,5.442,39c1.572,5,13.662,2.483,10.817-3.394Zm3.239-2.527c4.558,11.206,21.433.94,15.159-8.37-6.054-7.372-16.212-18.293-24.32-26.138-1.264-.948-2.369-.159-1.9.947a217.184,217.184,0,0,0,11.058,33.561ZM497.042,514.5a.849.849,0,0,0-.841,1.462,196.98,196.98,0,0,1,24.258,25.785c4.305,4.882,9.284-8.366,4.684-11.212l-28.1-16.035Zm2.415-7.237c-1.391-.134-2.2.917-.965,1.832,9.664,5.8,18.964,11.361,26.367,16.758,5.033,3.37,6.378-7.3,0-10.076q-12.7-4.257-25.4-8.514ZM300.178,479.242c2.323,3.392,9.532,2.68,14.1,2.66q-.132-10.114-.265-20.225l-21.025-.266c1.573,6.2,3.579,12.362,7.186,17.831ZM515.111,506.72c3.537.594,5.065,1.117,7.568,3.4,3.036,1.971,5.95.167,4.1-3.118-2.591-3.582-8.772-3.6-11.673-.284Zm-19.721-36.343c8.292-2.891-6.736-9.077-8.874-9.792-5.249-1.745-7.631,6.182-7.092,10.732,1.124,4.847,11.561.029,15.966-.939Zm-7.419,12.677c4.832-2.664,8.5-5.351,13.515-6.175,2.6-.531,1.633-2.6-.507-2.256-6.231.937-13.276,2.394-16.52,3.572-5.136,2.394-1.786,7.906,3.511,4.858Zm10.577,7.961a66.866,66.866,0,0,1,13.749-.158c1.257-.048,2.159-.536,1.91-1.822q-.78-2.645-1.562-5.292c-.536-1.5-1.9-1.787-3.557-1.217a52.124,52.124,0,0,0-11.367,6.6c-1.161.9-.79,2.026.826,1.893Zm6.06,4.3a.8.8,0,0,0,.022,1.6l10.286.611c1.9.115,1.568-2.059.322-2.077-3.632-.12-7-.008-10.63-.131Zm-14.29-3.062a2.044,2.044,0,1,0,2.045,2.046,2.046,2.046,0,0,0-2.045-2.046Zm-68.751-29.961a2.046,2.046,0,1,0,2.044,2.046,2.045,2.045,0,0,0-2.044-2.046Zm59.107-11.131c23.371-1.491,32.228,9.068,38.55,21.855,3.34,5.755,15.916,3.6,10.943-6.416-10.939-16.693-24.143-24.476-50-22.2.212,2.839.294,3.922.508,6.765Zm-.852-21.525q.425,3.305.852,6.607c33.175-.427,54.158,10.528,59.84,33.545.426,9.519,10.279,8.238,9.48-.445-5.417-33.052-35.844-42.956-70.172-39.708Zm-33.9-17.476h-11.49l-4.69,54.345c-.482,3.57,1.649,4.814,3.2,4.9,4.12.711,9.4,1.421,13.521,2.131l-.538-61.377Zm22.951,61.154c7.152-11.331,8.58-51.2,1.549-59.822-1.518-2.034-11.565-2.221-12.986.393-3.066,4.582-3.429,11.666-3.4,18.573-.258,13.94-.491,26.626-.75,40.565q7.793.148,15.585.292Zm60.505-82.173c-4.047,2.73-7.448,4.617-11.5,7.344l9.634-2.377a55.758,55.758,0,0,0,2.112,21.777q-15.044,2.906-30.091,5.807l33.785-1.451c2.056.035,2.554-.879,1.85-2.906-2.375-9.764-3.26-15.546-2.468-27.423-.019-1.532-1.82-1.891-3.326-.772Zm-47.822,21.275c-2.348.918-.8,4.949,1.876,3.7L506.1,404.508c-8.439,2.717-16.105,5.188-24.545,7.907Zm10.723-12.977c15.328-3.934,25.793-7.615,38.415-15.484,14.755-8.974,26.681-11.678,40.2-11.8,15.614.08,17.951,6.435,19.181,13.155.326,10.082-6.968,11.433-12.3,11.433-14.038,1.053-17.278-14.1-6.272-14.507,4.755.574,3.73,3.239,3.077,6.887-.086,2.662,7.456,2.744,9.834.983q.061-2.09.122-4.181c.409-3.608-3.114-6.475-7.376-7.623-6.3-1.375-12.862-.374-15.369,5.78-3.654,8.094,2.752,17.828,11.681,17.828,5.122-.04,7.539-.062,12.66-.1,7.828.164,15.29-4.243,16.6-11.7.574-9.879,1.025-17.658,1.6-27.535.206-2.868-1.312-4.884-4.426-4.8-19.138-1.066-32.844-1.737-53.09-.22-4.438.465-8.466.343-11.459,4.4-14.916,19.507-13.236,25.859-45.491,34.549-2.335,1.6-1.163,4.3,2.4,2.942Zm48.866-7.121q4-3.75,7.992-7.5a1,1,0,0,0-1.353-1.476q-5.1,2.581-10.2,5.164c-2.008,2.009.655,5.37,3.565,3.813Zm-6.565-45.324c-3.223,3.416-.948,5.5,1.707,5.124,23.968-4.3,37.864-4.233,57.28-1.893,8.408,1.518,10.18-.568,11.572-3.415,1.284-3.437-5.981-8.075-15.558-9.106-11.643-.489-38.5-.469-55,9.29Zm-14.04-68.681c13.408,18.465,12.776,40.73,12.9,61.661,16.38-5.691,30.864-6.451,45.726-6.83-14.04-4.427-17.968-6.613-18.336-16.545-.386-17.361,15.085-13.492,25.354-13.052,3.731.381,2.592-1.7,3.226-5.122.877-19.738-4.587-36.3-6.031-56.293.189-2.91-2.326-5.207-6.012-3.82-18.912,4.684-39.121,13.946-56.449,32.414-1.8,2.272-2.054,5.573-.38,7.588ZM355.818,461.2c-2.677.154-4.169,1.613-4.119,4.494q.376,4.3.749,8.613c.189,1.821,3.265,1.862,5.431,1.313q4.4-1.312,8.8-2.623.094-5.992.188-11.986-5.525.1-11.049.189Zm-19.549-3.434c-7.529.436-15.355.932-17.416,11.475-2.259,13.441,17.813,11.208,23.422,8.379.672-5.585,1.7-10.937,6.659-16.762a23.358,23.358,0,0,0-12.665-3.092Zm-3.235-62.479c2.2-1.2,1.523-5.191-.233-7.155-7.373-8.24-24.1-13.587-25.5-3.254-.951,13.924,22.127,11.956,25.728,10.408Zm13.8,57.674q9.457-.188,18.915-.374l-.44-2.631q-.632-2.61-1.142-5.271l-13.4-1.836c-6.959-.72-11.216,10.031-3.935,10.111Zm1.052-15.255c6.211-.12,9.049-.113,15.16-.233q-.591-4.8-.773-9.829c-4.748-.194-12.617.1-17.1.071-8.375-.173-11.874,9.912,2.714,9.992Zm-3.124-27.935c-4.545-1.344-8.254,2.917-5.6,6.914,5.34,5.667,13.452,5.3,23.039,4.759q.013-1.064.044-2.139l.077-7.678c-6.943.147-11.706-.148-17.56-1.856ZM363.2,406.2q.537-4.706,1.369-9.684l.043-.376c-5.745.1-8.872.8-13.089-1.2-3.986-2.262-7.659-3.7-10.36.983-3.422,8.03,10.5,11.136,22.037,10.276Zm3-18.388.032-.148c-4.3-7.83-25.044-15.612-26.7-6.794-.619,10.684,19.163,8.016,26.672,6.942Zm-40.313,50.748c-5.9.018-12.735.7-14.487,8.719-2.594,10.232,17.908,7.848,23.518,5.695-.339-3.633.822-6.235,4.255-9.769-2.053-2.507-9.176-4.439-13.286-4.645Zm-10.961-17.969c-3.528.16-6.633,1.85-6.7,5.784.062,3.142.067,3.357.126,6.5,5.758.04,9.632.067,15.389.11,4.54.424,10.371-6.7,8.041-9.077-4.582-3.222-10.15-3.317-16.86-3.317Zm13.369-7.139q3.649-3.655,7.3-7.3c-16.951-7.463-32.73-3.885-27.9,3,5.93,6.115,12.981,5.116,20.6,4.306ZM309.74,371.609c7.078,2.952,13.333,4.977,21.736,4.015,1.792-.181,2.666-2.247,1.237-3.183-5.056-2.812-9.1-5.056-14.158-7.867L310,367.7a2.077,2.077,0,0,0-.261,3.907ZM293.566,454.22c1.606,1.881,8.114,2.059,8.647-.393.282-5.375.7-7.273,3.852-11.328,1.715-2.051,1.874-3.3,0-3.874a43.047,43.047,0,0,0-14.387-1.109c-2.645.274-3.966,1.347-3.661,3.455,1.363,6.32,2.511,9.2,5.55,13.249Zm1.915-22.443c3.638-.227,4.543-6.716,5.328-10.032.329-2.1-.938-2.353-2.491-1.936a21.539,21.539,0,0,1-10.789-.277c-2.137-.721-3.642.638-2.494,2.765,2.346,4.394,5.639,9.244,10.446,9.48Zm1.622-18.464c1.385-.035,2.691-1,1.971-1.805-2.847-2.519-3.229-5.854-.164-10.017-.548-2.352-8.333-3.349-11-3.613-4.38-.354-4.328,8.317-3.779,11.988.717,3.691,8.647,3.775,12.973,3.446Zm-10.631-23.54c1.14,2.783,7.061,2.968,12.9,2.016-.357-4.722.2-8.006,1.894-9.623.784-.959,1.333-3.34-.537-3.769-6.381-2.176-12.233-3.795-13.6-.476a21.317,21.317,0,0,0-.661,11.852Zm12.6-19.315c.821-3.228,3.447-6.951,9.361-9.2a56.693,56.693,0,0,0-9.2-2.956c-5.192-.658-7.959,1.387-10.18,6.241-2.23,4.949,7.429,8.42,10.016,5.91Zm4.349-136.936c9.023,7.566,39.052,3.431,41.024,23.965,1.5,20.395,21.9,38.535,42.575,43.844,4.886.893,7.234-1.88,4.509-5.358-11.369-13.441-20.489-19.831-23.119-42.855-3.43-14.757-16.36-23.581-33.183-23.959-8.891.109-20.769,0-30.416-.79-4.372-.418-5.889,1.659-1.39,5.153Zm-15.778,39.665c14.734-1.81,22.559,3.933,32.9,21.785,9.851,17.918,40.477,22.042,63.97,23.046,7.07-.092,7.242-5.89,2.329-7.636-16.325-6.513-28.573-9.37-43.5-27.663-13.711-18.587-34.975-27.525-55.864-16.211-5.7,3.135-5.513,7.2.172,6.678ZM274.768,327.5c2.151-2.791,3.963-5.241,9.062-4,42.9,14.507,36.985,19.833,106.975,18.866-1.328-18.054-5.7-17.636-29.43-20.659-21.57-2.2-50.1-17.05-72.2-14.912-10.33,1.6-17.026,5.857-18.911,18.067-.252,4.368,2.882,4.857,4.5,2.642Zm18.213,22.857,5.413-1.954c11.1-3.116,40.471,18.929,61.2,19.7,16.419-.057,21.9-11.364,28.954-19.88-19.275,1.048-36.511,2.2-56.339.747-13.051-.145-23.346-12.8-31.671-8.469a32.546,32.546,0,0,0-10.419,6.895c-2.374,2.005.433,4.287,2.868,2.96Zm162.462-129.1q6.14-2.29,12.28-4.577c1.369-.524,1.568-1.3,1.458-3.332-.252-8.819-.866-18.3,1.667-26.019.7-1.55.934-3.289-1.536-4.1-12.4-3.519-26.431-2.8-41.762,4.51-1.815.96-2.02,2.871-.832,3.539,11.273,6.573,18.3,16.807,23.938,28.725,1.083,2.173,3.484,1.858,4.786,1.248ZM445.4,266.736c19.824-1.13,33.83-17.333,31.056-26.236a16.86,16.86,0,0,0-8.365-10.639c-3.78-2.071-7.655-1.036-8.326,3.662-2.165,13.6-7.9,21.9-16.105,27.907-2.622,1.4-1.034,5.458,1.74,5.307ZM524.348,163.37c2.342,0,4.586.013,6.649-.192,2.356-.169,1.734-6.455-1.961-4.315q-2.523,1.264-5.047,2.522c-1.4.632-.741,2.084.359,1.985Zm1.416,4.663c-11.816-2.764-18.077,13.814-8.214,18.023,15.442,5.274,20.749-10.111,15.569-12.506-4.045-1.6-3.719-3.924-7.355-5.517Zm-.767,7c-3-1.536-5.794,2.516-3.42,4.309,3.81,2.455,6.271-1.336,5.033-2.33-.982-.7-.739-1.306-1.613-1.979ZM508.053,192.7c-13.388-1.7-12.729,23.4,1.38,23.3,12.61-.235,19.453-19.821-1.38-23.3Zm1.566,9.292A2.385,2.385,0,1,0,512,204.378a2.385,2.385,0,0,0-2.384-2.386Zm-13.924-9.383a12.209,12.209,0,0,1,7.835-3.746,1.288,1.288,0,0,0,1.02-1.818,16.336,16.336,0,0,1-1.589-9.424c.311-1.072-1.123-2.178-1.929-1.249-4.5,5.035-6.85,9.728-7.72,15.443-.227,1.349,1.525,1.876,2.383.794Zm1.192,36.161c-.1,1.224,1.1,1.777,2.5.8,7.644-4.39,16.536-7.532,24.977-3.633a1.72,1.72,0,0,0,2.269-2.158,23.806,23.806,0,0,1-1.931-7.72c-7.682,5.828-15.931,7.907-27.476,4.2a33.328,33.328,0,0,1-.339,8.516Zm17.191,40.378a14.146,14.146,0,0,1,.54-7.93c-6.284-.6-12.254-.423-15.971-7.855-.741-1.368-3.207-1.211-3.489.485-.994,3.549-2.445,5.385-5.048,8.092,10.211.68,16.324,3.2,23.968,7.208Zm-30.6-7.513c11.3-14.6,12.054-24.779,5.327-43.8-12.391-34.7,19.961-66.267,53.045-65.238-4.273,13.454.464,20.1,10.133,29.135-24.8,15.508-27.282,34.324-6.716,57.4,3.483.368,5.608-.452,9.093-.083-21.49-14.344-23.934-44.5,4.907-52.727,3.371-.923,5.429-2.423,2.534-4.91-9.524-9.051-17.007-15.547-13.778-30.717.617-2.234.043-3.788-4.273-3.642-14.188,1.767-40.107,8.806-56.847,31.826-8.731,12.028-7.276,28.589-2.744,40.958,6.971,18.163,1.549,26.7-9.672,42.485q4.5-.348,8.99-.689Zm42.531-69.275a2.143,2.143,0,1,0,2.5,2.114,2.329,2.329,0,0,0-2.5-2.114Zm-35.363,104.38c19.42,2.146,10.127-18.659-1.444-18.765-13.592.366-13.6,16.959,1.444,18.765Zm13.053,29.7c19.418,2.146,10.127-18.659-1.443-18.764-13.592.364-13.6,16.957,1.443,18.764Zm3.174,30.008c17.624,1.594,11.142-18.838-.155-18.667-13.592.366-11.986,17.412.155,18.667Zm-13.211,22.5c11.963.629,8.471-15.62-1.166-16.14-10.14-.049-12.216,15.3,1.166,16.14Zm-25.552-3.3c-12.9-3.124-10.854,11.786-1.356,13.171,8.963,1.248,12.578-10.154,1.356-13.171Zm-59.556-81.523c5.626-.022,7.788-7.455,2.076-11.008-1.268-2.139,3.056-4.932,6.308-4.442,4.823,1.357,5.538,4.108,5.844,6.778.271,10.722-26.854,18.887-23.348,41.947,3.194,26.484,20.352,26.366,20.976,43.5-.247,6.865-4.662,12.006-14.988,12.73-8.1.011-15.269-2.915-15.825-11.249-.347-6.333,3.719-10.727,10.718-9.915,6.606,1.368,10.014,7.277,5.139,9.846-.543-3.931-6.606-5.379-6.745.069.189,8.764,14.683,7.991,15.591-.536.656-7.155-6.7-16.581-17.926-16.992-8.58-.121-13.353,7.3-13.388,14.855-.211,15.136,13.733,22.324,26.407,22.035a27.322,27.322,0,0,0,24.436-13.955c8.857-17.947-15.8-21.842-18.526-47.7-1.483-15.346,18.863-23.221,22.99-40.9,1.949-10.75-4.608-25.74-21.356-25.974-14.027.1-22.282,7.152-22.666,16.865-.42,10.728,7.882,13.257,14.282,14.045Zm36.109-5.359c10.2-.158,21.759.053,30.488,4.2-2.206-5.263-2.112-10.745,2.678-15.748-10.76,1.994-21.523,4.543-33.022,4.447a14.411,14.411,0,0,1-.144,7.1Zm42.967,21.582c6.622-8.257,15.61-8.95,25.54-3.312a53.514,53.514,0,0,0-6.265-15.729c-3.155,12.025-13.166,13.047-24,7.688a61.591,61.591,0,0,1,4.729,11.353Zm27.535,16.243c-5.382,5.338-14.237,4.8-22.557.4q.4,5.339.8,10.677c6.673-4.405,14.815-5.74,22.423-1.6q-.333-4.739-.668-9.477ZM489.4,357.958c11.234.761,15.484,5.159,16.82,14.549,2.813-2.256,6.3-7.4,7.871-11.511-12.146-.267-14.28-1.7-22.022-7.979q-1.335,2.468-2.67,4.94Zm-10.947,30.433a67.108,67.108,0,0,0,19.227-6.209c-11.034.712-15.882-3.22-19.305-11.451-1.533.579-3.77,1.107-4.769,1.462,5.163,5.075,6.628,9.791,4.847,16.2Zm5.2-119.414c26.347,1.215,40.8,24.11,41.632,57.173,1.533,31.719-1.918,46.748-31.08,65.228,31.278-15.6,36.722-23.387,35.493-64.652C527.973,287.906,513.811,267,484.805,266.1c-14.708.32-24.136,2.5-37.219,6.139,12.3-1.357,22.7-3.71,36.069-3.262Zm.577,66.764c.058,24.783-19.049,27.041-37.8,32.806,31.944,2.184,41.505-9.27,41.824-28.584.464-30.889-13.108-47-29.161-47.2-7.416-.19-10.053,1.05-14.775,3.453,21.812-.51,38.579,2.773,39.909,39.522Zm-46.813,20.528c2.621,5.694,6.587,6.206,13.049,6.141,12.148-.96,18.927-4.988,18.606-22.447-.319-11.382-3.682-24.3-13.21-25.513-5.818-1.407-23,5.84-20.381,13.835,11.319,15.731,17.858,19.353,1.936,27.984Zm-28.408,105.2c14.214,1.031,16.031-15.379-1.089-18.232-11.025-1.819-12.3,17.393,1.089,18.232Zm-16.158-32.565c11.744-1.8,5.188-16.579-3.157-14.407-7.858,2.109-7.151,15.688,3.157,14.407Zm-14.1-35.833c.672-1.7-.526-3.1-1.655-.965-4.628,8.321-9.377,20.363-4.311,44.736.449,2.245,2.361,2.31,2.184.722-1.977-15.252-1.55-28.252,3.782-44.493Zm61.725-10.564c-4.025,4.847,3.048,11.3,7.611,5.914,3.53-4.678-2.754-11-7.611-5.914Zm-49.818,61.785c7.253-6.965,11.952-7.772,20.924-5.7a38.258,38.258,0,0,1-6.712-10.017c-5.305,4.8-7.28,7.107-15.42,6.253.437,2.962,1.031,6.418,1.209,9.46Zm-12.067-11.962a2.627,2.627,0,1,0,4.145,3.223,2.627,2.627,0,1,0-4.145-3.223Zm1.158-15.4c.7-3.189,2.2-4.274,4.124-5.548,3-2.051,1.251-5.453-2.126-4.419-2.974.917-3.776,6.346-2,9.967Zm5.045-20.087a8.252,8.252,0,0,0,4.083,6,8.062,8.062,0,0,0,7.64-.632c2.437-1.418,1.888-4.229.244-4.64a31.52,31.52,0,0,1-8.792-3.174c-1.478-.994-3.715-.1-3.176,2.443Zm15.751,9.47a4.017,4.017,0,0,0-3.58,3.41c.127,2.25,2.349,3.1,3.69,3.285,2.076-.066,2.391-6.577-.11-6.7Zm22.5,25.517c-9.322-10.235-3.624-11.355,3.529-7.126,1.12.663,2.254-1.171,1.213-1.948-5.4-2.169-11.078-5.682-10.656-13.387.46-11.466,6.6-13.564,20.908-15.945-2.418-1.419-3.416-3.544-3.42-6.6a53.7,53.7,0,0,1-23.379,11.566A4.407,4.407,0,0,0,408,401.968c-1.637,13.653,1.97,24.1,13.653,32.194,1.807,1.172,3.043-.525,1.395-2.333Zm12.022-80.541a6.194,6.194,0,0,0,4.763-4.432c.914-2.108-2.753-7.1-4.923-5.3-1.655,1.577-3.2,2.515-6.738,2.014,1.039,3.393,4.725,8.1,6.9,7.719Zm-3.166-18c-2.352-1.424-1.887-5.859-1.991-9.3-.058-1.97-3.293-2.593-3.945-.557-2.06,4.25-2.738,11.132-.958,13.117,1.445,2.327,4.4,2.082,7.107,1.262,2.48-1.009,2.068-3.275-.212-4.526Zm.127-20.1c-1.677,0-3.036.808-3.036,1.807s1.359,1.806,3.036,1.806,3.038-.808,3.038-1.806-1.361-1.807-3.038-1.807Zm15.876,84.844c12.637-.513,26.263-1.137,40.547-5.495-20.941,1.121-20.014.982-40.547,5.495Zm40,8.619c2.823.128,3.1-4.9-.216-4.122l-11.673,2.32c4.109.392,7.782,1.411,11.89,1.8ZM592.419,277.228c.366,3.256,2.441,2.163,3.988,1.773,11.207-3.651,17-.988,20.869,6.823,1.334,2.631,3.308,2.737,4.506.774a12.138,12.138,0,0,0,.128-10.949c-3.48-6.814-17.947-16.539-29.68-23.681-1.5-1.2-3.335-.618-2.777,1.4,1.075,8.631,1.893,15.23,2.967,23.86ZM504.1,243.586c2.672,6.94,7.682,10.76,14.874,8.513,5.91-2.5,15.571-9,9.648-16.347l-5.447-5.792c-6.808-5.4-24.017,1.736-19.076,13.626Zm12.716-6.359a2.383,2.383,0,1,0,2.383,2.384A2.382,2.382,0,0,0,516.813,237.226Z" transform="translate(-267.316 -143.467)"/></g></g></g></svg>